X Lossless Decoder version 20110417 (131.0)

XLD extraction logfile from 2011-04-29 10:02:35 +0900

Cannonball Adderley / Somethin' Else

Used drive : HL-DT-ST BD-RE  BH10NS30 (revision EL00)

Ripper mode             : CDParanoia III 10.2
Disable audio cache     : OK for the drive with a cache less than 2750KiB
Make use of C2 pointers : NO
Read offset correction  : 667
Max retry count         : 100
Gap status              : Analyzed, Appended

TOC of the extracted CD
     Track |   Start  |  Length  | Start sector | End sector 
    ---------------------------------------------------------
        1  | 00:00:00 | 11:01:55 |         0    |    49629   
        2  | 11:01:55 | 07:06:55 |     49630    |    81634   
        3  | 18:08:35 | 08:15:05 |     81635    |   118764   
        4  | 26:23:40 | 08:26:45 |    118765    |   156759   
        5  | 34:50:10 | 04:07:37 |    156760    |   175321   
        6  | 38:57:47 | 05:05:03 |    175322    |   198199   

AccurateRip Summary
    Disc not found in AccurateRip DB.

All Tracks
    Filename : /Users/angelicalbite/Music/flac/Somethin' Else.flac
    CRC32 hash             : 9E821C6D
    CRC32 hash (skip zero) : BC8D4A13
    Statistics
        Read error                           : 0
        Skipped (treated as error)           : 0
        Edge jitter error (maybe fixed)      : 0
        Atom jitter error (maybe fixed)      : 0
        Drift error (maybe fixed)            : 0
        Dropped bytes error (maybe fixed)    : 0
        Duplicated bytes error (maybe fixed) : 0

Track 01
    Pre-gap length : 00:02:00

    CRC32 hash             : B1A184DB
    CRC32 hash (skip zero) : 5D4A0E6A
    AccurateRip signature  : 7C97DE6A
        ->Track not present in AccurateRip database.
    Statistics
        Read error                           : 0
        Skipped (treated as error)           : 0
        Edge jitter error (maybe fixed)      : 0
        Atom jitter error (maybe fixed)      : 0
        Drift error (maybe fixed)            : 0
        Dropped bytes error (maybe fixed)    : 0
        Duplicated bytes error (maybe fixed) : 0

Track 02
    Pre-gap length : 00:03:27

    CRC32 hash             : A0DD1B6E
    CRC32 hash (skip zero) : ABC9EA4F
    AccurateRip signature  : C5C19F54
        ->Track not present in AccurateRip database.
    Statistics
        Read error                           : 0
        Skipped (treated as error)           : 0
        Edge jitter error (maybe fixed)      : 0
        Atom jitter error (maybe fixed)      : 0
        Drift error (maybe fixed)            : 0
        Dropped bytes error (maybe fixed)    : 0
        Duplicated bytes error (maybe fixed) : 0

Track 03
    Pre-gap length : 00:02:73

    CRC32 hash             : 58384B06
    CRC32 hash (skip zero) : CF4DF583
    AccurateRip signature  : 04F33AFF
        ->Track not present in AccurateRip database.
    Statistics
        Read error                           : 0
        Skipped (treated as error)           : 0
        Edge jitter error (maybe fixed)      : 0
        Atom jitter error (maybe fixed)      : 0
        Drift error (maybe fixed)            : 0
        Dropped bytes error (maybe fixed)    : 0
        Duplicated bytes error (maybe fixed) : 0

Track 04
    Pre-gap length : 00:01:08

    CRC32 hash             : ABBD7DCB
    CRC32 hash (skip zero) : 1795DCA4
    AccurateRip signature  : 1497E4A2
        ->Track not present in AccurateRip database.
    Statistics
        Read error                           : 0
        Skipped (treated as error)           : 0
        Edge jitter error (maybe fixed)      : 0
        Atom jitter error (maybe fixed)      : 0
        Drift error (maybe fixed)            : 0
        Dropped bytes error (maybe fixed)    : 0
        Duplicated bytes error (maybe fixed) : 0

Track 05
    Pre-gap length : 00:01:18

    CRC32 hash             : 1D43CB9F
    CRC32 hash (skip zero) : 80826D81
    AccurateRip signature  : 10436789
        ->Track not present in AccurateRip database.
    Statistics
        Read error                           : 0
        Skipped (treated as error)           : 0
        Edge jitter error (maybe fixed)      : 0
        Atom jitter error (maybe fixed)      : 0
        Drift error (maybe fixed)            : 0
        Dropped bytes error (maybe fixed)    : 0
        Duplicated bytes error (maybe fixed) : 0

Track 06
    Pre-gap length : 00:02:20

    CRC32 hash             : 6360E520
    CRC32 hash (skip zero) : C4176B10
    AccurateRip signature  : C3313476
        ->Track not present in AccurateRip database.
    Statistics
        Read error                           : 0
        Skipped (treated as error)           : 0
        Edge jitter error (maybe fixed)      : 0
        Atom jitter error (maybe fixed)      : 0
        Drift error (maybe fixed)            : 0
        Dropped bytes error (maybe fixed)    : 0
        Duplicated bytes error (maybe fixed) : 0

No errors occurred

End of status report
